<?xml version="1.0" encoding="utf-8"?>
<svg xmlns="http://www.w3.org/2000/svg" width="320" height="96" viewBox="0 0 320 96">
  <path fill="#6DA5E5" d="M89.72 35.007c.018-.424.027-.854.027-1.28C89.747 17.31 76.437 4 60.02 4S30.295 17.31 30.295 33.727c0 .43.01.86.027 1.284 9.972-4.354 21.32-2.81 29.704 3.468 8.384-6.276 19.727-7.822 29.696-3.47z" />
  <path fill="#294BA5" d="M48.157 60.99c3.636 1.583 7.646 2.463 11.864 2.463 4.222 0 8.237-.88 11.875-2.467-.196-4.633-1.48-9.286-3.96-13.58-2.075-3.59-4.787-6.588-7.91-8.928-3.122 2.34-5.832 5.334-7.906 8.927-2.482 4.295-3.767 8.952-3.963 13.586z" />
  <path fill="#2B9BDA" d="M71.895 60.986c10.14-4.423 17.332-14.333 17.825-25.98-9.967-4.35-21.313-2.804-29.693 3.472 3.122 2.34 5.833 5.334 7.907 8.927 2.48 4.293 3.765 8.95 3.96 13.58z" />
  <path fill="#6750AE" d="M48.157 60.99C38.014 56.573 30.817 46.66 30.32 35.01c9.973-4.354 21.323-2.81 29.706 3.468-3.123 2.34-5.833 5.334-7.907 8.927-2.482 4.295-3.767 8.952-3.963 13.586z" />
  <path fill="#6074B8" d="M71.895 60.986c.405 9.585-3.852 19.073-11.87 25.065-8.013-5.99-12.272-15.477-11.868-25.06 3.636 1.582 7.646 2.462 11.864 2.462 4.222 0 8.237-.88 11.875-2.466z" />
  <path fill="#66F1F3" d="M60.026 86.054c.94.702 1.93 1.357 2.973 1.96 14.216 8.208 32.397 3.336 40.605-10.88 8.21-14.22 3.338-32.4-10.88-40.606-.983-.57-1.985-1.075-3.004-1.52-.493 11.646-7.686 21.557-17.823 25.98.404 9.583-3.855 19.073-11.87 25.066z" />
  <path fill="#F27CC2" d="M60.026 86.054c-.94.702-1.93 1.357-2.973 1.96-14.218 8.208-32.398 3.336-40.606-10.88-8.21-14.22-3.338-32.4 10.88-40.606.98-.57 1.98-1.073 2.997-1.515.495 11.648 7.693 21.56 17.833 25.982-.405 9.582 3.856 19.067 11.87 25.06z" />
  <g fill="#2E2E2E">
    <path d="M138.6 34.948c2.482-2.536 5.64-3.804 9.472-3.804 5.128 0 8.877 1.7 11.248 5.1 1.31 1.91 2.012 3.825 2.11 5.748h-6.437c-.41-1.477-.937-2.592-1.577-3.344-1.147-1.338-2.848-2.007-5.1-2.007-2.293 0-4.102.945-5.426 2.833-1.323 1.888-1.985 4.56-1.985 8.016 0 3.454.698 6.043 2.095 7.764 1.398 1.72 3.173 2.58 5.326 2.58 2.208 0 3.892-.737 5.05-2.214.642-.795 1.173-1.986 1.596-3.575h6.396c-.552 3.358-1.962 6.09-4.23 8.194-2.267 2.103-5.172 3.154-8.715 3.154-4.384 0-7.83-1.42-10.34-4.264-2.507-2.856-3.762-6.772-3.762-11.746 0-5.378 1.427-9.524 4.28-12.436z" />
    <path d="M178.745 39.223c.076.007.248.017.514.03v6.104c-.378-.042-.712-.07-1.005-.083-.292-.014-.53-.02-.71-.02-2.397 0-4.007.78-4.83 2.34-.458.877-.688 2.23-.688 4.055v10.89h-6V39.754h5.687v3.97c.92-1.518 1.72-2.556 2.403-3.113 1.115-.934 2.564-1.4 4.348-1.4.11 0 .204.003.28.01z" />
    <path d="M191.772 48.68c1.107-.14 1.902-.313 2.378-.522.857-.362 1.284-.926 1.284-1.693 0-.934-.327-1.578-.984-1.934-.657-.354-1.62-.532-2.892-.532-1.428 0-2.438.348-3.03 1.045-.424.516-.706 1.212-.847 2.09h-5.747c.126-1.993.686-3.63 1.68-4.912 1.58-2.005 4.296-3.01 8.146-3.01 2.502 0 4.728.496 6.673 1.485 1.944.99 2.917 2.856 2.917 5.602v10.45c0 .725.015 1.603.042 2.634.042.78.16 1.31.355 1.59.195.278.487.51.878.69v.877h-6.48c-.18-.46-.306-.892-.375-1.296-.07-.403-.126-.863-.167-1.38-.827.894-1.78 1.652-2.86 2.28-1.288.738-2.746 1.107-4.372 1.107-2.074 0-3.785-.59-5.14-1.767-1.352-1.178-2.027-2.846-2.027-5.006 0-2.8 1.087-4.828 3.263-6.082 1.194-.684 2.948-1.17 5.264-1.463l2.042-.25zm3.642 2.78c-.38.237-.767.43-1.154.575s-.922.282-1.6.407l-1.356.25c-1.27.224-2.184.495-2.737.816-.938.543-1.407 1.386-1.407 2.53 0 1.016.285 1.75.86 2.204.57.452 1.268.68 2.09.68 1.3 0 2.5-.377 3.596-1.13 1.098-.752 1.667-2.125 1.71-4.117V51.46z" />
    <path d="M215.98 31.447c.307.02.725.052 1.255.094v4.85c-.335-.042-.896-.073-1.683-.094s-1.33.153-1.63.522c-.3.37-.45.777-.45 1.223v1.924h3.91v4.2h-3.91V62.54h-5.915V44.166h-3.344v-4.2h3.26V38.5c0-2.438.41-4.118 1.233-5.037.864-1.366 2.947-2.048 6.25-2.048.377 0 .72.01 1.025.03z" />
    <path d="M218.468 44.208v-4.243h3.178V33.61h5.894v6.354h3.7v4.243h-3.7v12.04c0 .934.12 1.515.355 1.745.237.23.962.345 2.174.345.18 0 .372-.004.574-.01s.4-.02.596-.032v4.452l-2.822.104c-2.814.1-4.737-.39-5.77-1.462-.668-.683-1.002-1.735-1.002-3.156V44.208h-3.178z" />
    <g>
      <path d="M245.13 62.58V31.76h4.45l10.104 27.184h.086l9.932-27.183h4.408v30.82h-2.91V35.1h-.086L261.01 62.58h-2.74L248.127 35.1h-.086v27.48h-2.91z" />
      <path d="M280.787 35.57v-3.81h2.825v3.81h-2.825zm.13 27.01V40.41h2.567V62.58h-2.568z" />
      <path d="M297.737 52.993l-6.89 9.588h-3.127l8.52-11.47-7.835-10.702h3.168l6.122 8.817 6.292-8.817h3.254l-8.004 10.7 8.305 11.473h-3.082l-6.72-9.587z" />
    </g>
  </g>
</svg>
