<?xml version="1.0" encoding="utf-8"?>
<svg xmlns="http://www.w3.org/2000/svg" width="256" height="256" viewBox="0 0 256 256">
  <path fill="#6DA5E5" d="M202.912 95.222c.046-1.07.07-2.153.07-3.23 0-41.417-33.577-74.994-74.995-74.994s-74.99 33.578-74.99 74.993c0 1.085.022 2.17.068 3.24 25.153-10.986 53.785-7.09 74.932 8.75 21.15-15.834 49.765-19.733 74.916-8.76v.002z" />
  <path fill="#294BA5" d="M98.057 160.774c9.173 3.99 19.29 6.21 29.93 6.21 10.65 0 20.78-2.22 29.956-6.222-.495-11.688-3.736-23.427-9.987-34.263-5.238-9.06-12.078-16.62-19.956-22.522-7.877 5.9-14.716 13.458-19.948 22.52-6.258 10.838-9.5 22.585-9.995 34.276z" />
  <path fill="#2B9BDA" d="M157.942 160.763c25.577-11.158 43.725-36.16 44.967-65.543-25.146-10.973-53.77-7.074-74.91 8.76 7.876 5.898 14.716 13.457 19.947 22.52 6.26 10.83 9.5 22.574 9.995 34.263z" />
  <path fill="#6750AE" d="M98.057 160.774c-25.586-11.15-43.742-36.158-44.995-65.543 25.156-10.986 53.79-7.09 74.938 8.75-7.877 5.898-14.716 13.457-19.948 22.52-6.258 10.836-9.5 22.583-9.995 34.274z" />
  <path fill="#6074B8" d="M157.942 160.763c1.02 24.18-9.718 48.115-29.943 63.233-20.218-15.118-30.963-39.046-29.944-63.222 9.173 3.99 19.29 6.21 29.93 6.21 10.65 0 20.78-2.22 29.956-6.22z" />
  <path fill="#66F1F3" d="M128 224c2.37 1.77 4.872 3.423 7.5 4.94 35.868 20.71 81.732 8.42 102.44-27.444 20.71-35.87 8.42-81.737-27.447-102.44-2.48-1.44-5.01-2.71-7.58-3.833-1.245 29.38-19.393 54.385-44.967 65.543C158.966 184.94 148.222 208.88 128 224z" />
  <path fill="#F27CC2" d="M128 224c-2.37 1.77-4.872 3.423-7.5 4.94-35.866 20.71-81.732 8.42-102.44-27.444-20.708-35.87-8.42-81.737 27.448-102.44 2.475-1.434 4.998-2.706 7.56-3.822 1.248 29.385 19.41 54.394 44.99 65.546-1.02 24.176 9.728 48.104 29.942 63.222V224z" />
</svg>
